<svg width="63" height="24" viewBox="0 0 63 24" fill="none" xmlns="http://www.w3.org/2000/svg">
<g filter="url(#filter0_d)">
<path d="M14.4473 8.24151L12.9366 1.39011C12.8271 0.992881 12.5696 0.646367 12.2115 0.414266C11.8533 0.182165 11.4186 0.0800903 10.9872 0.126791H4.06108L4 0.439826C9.39466 1.67613 12.9632 4.65929 14.4473 8.24151Z" fill="#F68A0A"/>
<path d="M30.4981 0.264893H26.0229L23.228 15.7724H27.6963L30.4981 0.264893Z" fill="#004A89"/>
<path d="M17.1753 15.7577L24.2137 0.276367H19.4774L15.0988 10.8525L14.6307 9.25566C13.2103 6.62901 11.0724 4.40946 8.43872 2.82724L12.4409 15.7605L17.1753 15.7577Z" fill="#004A89"/>
<path d="M43.2633 10.7022C43.2791 8.94047 42.0807 7.59795 39.5066 6.48928C37.9406 5.77377 36.9856 5.29488 36.9974 4.56819C36.9974 3.92628 37.8066 3.23593 39.5598 3.23593C40.7063 3.21174 41.8456 3.4142 42.9046 3.83033L43.3087 4.00641L43.9167 0.646861C42.6307 0.209768 41.2732 -0.00911958 39.9067 0.000291022C35.4896 0.000291022 32.3794 2.10024 32.3498 5.11602C32.3232 7.34547 34.5731 8.58644 36.2702 9.32897C38.0106 10.0864 38.593 10.5718 38.5821 11.2501C38.5703 12.2907 37.1965 12.7631 35.9104 12.7631C34.4583 12.8037 33.0161 12.525 31.6974 11.9488L31.1258 11.701L30.4971 15.177C32.091 15.7327 33.778 16.0114 35.4768 15.9996C40.1728 15.9987 43.2278 13.9239 43.2633 10.7022Z" fill="#004A89"/>
<path d="M48.5799 13.448L54.3057 13.4536C54.4417 13.994 54.8497 15.7771 54.8497 15.7771H58.9996L55.3789 0.281844H51.9296C51.4443 0.222396 50.9517 0.315877 50.5283 0.547796C50.1048 0.779714 49.774 1.13715 49.5871 1.56475L42.9468 15.7771H47.6456C47.6456 15.7771 48.4055 13.8672 48.5799 13.448ZM51.6448 5.93794C51.6222 5.97986 52.0144 5.04074 52.2361 4.45752L52.5387 5.79444C52.5387 5.79444 53.3921 9.49871 53.5715 10.272H49.867C50.2355 9.38132 51.6409 5.93885 51.6409 5.93885L51.6448 5.93794Z" fill="#004A89"/>
</g>
<defs>
<filter id="filter0_d" x="0" y="0" width="62.9996" height="24" filterUnits="userSpaceOnUse" color-interpolation-filters="sRGB">
<feFlood flood-opacity="0" result="BackgroundImageFix"/>
<feColorMatrix in="SourceAlpha" type="matrix" values="0 0 0 0 0 0 0 0 0 0 0 0 0 0 0 0 0 0 127 0" result="hardAlpha"/>
<feOffset dy="4"/>
<feGaussianBlur stdDeviation="2"/>
<feComposite in2="hardAlpha" operator="out"/>
<feColorMatrix type="matrix" values="0 0 0 0 0 0 0 0 0 0 0 0 0 0 0 0 0 0 0.25 0"/>
<feBlend mode="normal" in2="BackgroundImageFix" result="effect1_dropShadow"/>
<feBlend mode="normal" in="SourceGraphic" in2="effect1_dropShadow" result="shape"/>
</filter>
</defs>
</svg>
