<svg width="21" height="20" xmlns="http://www.w3.org/2000/svg">

 <g>
  <title>background</title>
  <rect fill="none" id="canvas_background" height="22.00016" width="15.000104" y="-1" x="-1"/>
 </g>
 <g>
  <title>Layer 1</title>
  <path id="svg_1" fill="#9acee6" d="m12.02,0c1.8,0 2.18,0.02 3.1,0.06c1.06,0.05 1.79,0.22 2.42,0.47c0.66,0.25 1.22,0.6 1.77,1.15c0.56,0.55 0.9,1.11 1.16,1.77c0.25,0.63 0.41,1.36 0.46,2.43c0.05,0.95 0.06,1.32 0.06,3.32l0,1.6c0,2 -0.01,2.37 -0.06,3.32c-0.0157,0.8268 -0.1712,1.6451 -0.46,2.42c-0.26,0.66 -0.6,1.22 -1.15,1.77c-0.56,0.56 -1.12,0.9 -1.78,1.16c-0.63,0.25 -1.36,0.41 -2.42,0.46c-0.95,0.05 -1.33,0.06 -3.33,0.06l-1.59,0c-1.99997,0 -2.36997,-0.01 -3.32997,-0.06c-0.82682,-0.0159 -1.64501,-0.1714 -2.42,-0.46c-0.66639,-0.2505 -1.27035,-0.6429 -1.77,-1.15c-0.51219,-0.5014 -0.90817,-1.109 -1.16,-1.78c-0.28838,-0.775 -0.4439,-1.5932 -0.46,-2.42c-0.04902,-1.0326 -0.06903,-2.0663 -0.06,-3.1l0,-2.05c0,-1.8 0.02,-2.18 0.06,-3.1c0.05,-1.06 0.22,-1.79 0.46,-2.42c0.26,-0.66 0.6,-1.22 1.16,-1.77c0.49518,-0.51257 1.10044,-0.90582 1.77,-1.15c0.77445,-0.29179 1.59263,-0.45069 2.42,-0.47c0.92,-0.04 1.3,-0.06 3.1,-0.06l2.04997,0zm0.02,1.8l-2.08997,0c-1.73,0 -2.1,0.02 -3,0.06c-0.97,0.04 -1.5,0.2 -1.85,0.34c-0.47,0.18 -0.8,0.4 -1.15,0.75c-0.35,0.35 -0.57,0.68 -0.75,1.15c-0.13,0.35 -0.3,0.88 -0.34,1.86c-0.04,0.9 -0.06,1.26 -0.06,3l0,2.08c0,1.74 0.02,2.1 0.06,3c0.04,0.97 0.2,1.5 0.34,1.85c0.18,0.47 0.4,0.8 0.75,1.15c0.35,0.35 0.68,0.57 1.15,0.75c0.35,0.14 0.88,0.3 1.86,0.34c0.97,0.05 1.32,0.06 3.47997,0.06l1.11,0c2.17,0 2.51,-0.01 3.49,-0.06c0.97,-0.04 1.5,-0.2 1.85,-0.34c0.47,-0.18 0.8,-0.4 1.15,-0.75c0.35,-0.35 0.57,-0.68 0.75,-1.15c0.14,-0.35 0.3,-0.88 0.34,-1.85c0.05,-0.98 0.06,-1.32 0.06,-3.49l0,-1.1c0,-2.17 -0.01,-2.52 -0.06,-3.5c-0.04,-0.97 -0.2,-1.5 -0.34,-1.85c-0.1609,-0.43457 -0.4172,-0.82754 -0.75,-1.15c-0.3222,-0.33308 -0.7152,-0.5894 -1.15,-0.75c-0.5931,-0.21683 -1.2185,-0.33178 -1.85,-0.34c-0.9992,-0.04773 -1.9996,-0.06774 -3,-0.06zm-1.04,3.06c1.3619,0 2.668,0.54101 3.631,1.50401c0.963,0.963 1.504,2.2691 1.504,3.63099c0,1.3619 -0.541,2.668 -1.504,3.631c-0.963,0.963 -2.2691,1.504 -3.631,1.504c-1.36186,0 -2.66796,-0.541 -3.63096,-1.504c-0.963,-0.963 -1.50401,-2.2691 -1.50401,-3.631c0,-1.36189 0.54101,-2.66799 1.50401,-3.63099c0.963,-0.963 2.2691,-1.50401 3.63096,-1.50401zm0,1.8c-0.8845,0 -1.73274,0.35136 -2.35817,0.9768c-0.62543,0.62543 -0.9768,1.4737 -0.9768,2.3582c0,0.8845 0.35137,1.7328 0.9768,2.3582c0.62543,0.6254 1.47367,0.9768 2.35817,0.9768c0.8845,0 1.7328,-0.3514 2.3582,-0.9768c0.6255,-0.6254 0.9768,-1.4737 0.9768,-2.3582c0,-0.8845 -0.3513,-1.73277 -0.9768,-2.3582c-0.6254,-0.62544 -1.4737,-0.9768 -2.3582,-0.9768zm5.33,-3.2c0.3183,0 0.6235,0.12643 0.8486,0.35147c0.225,0.22505 0.3514,0.53027 0.3514,0.84853c0,0.31826 -0.1264,0.62348 -0.3514,0.84853c-0.2251,0.22504 -0.5303,0.35147 -0.8486,0.35147c-0.3182,0 -0.6235,-0.12643 -0.8485,-0.35147c-0.225,-0.22505 -0.3515,-0.53027 -0.3515,-0.84853c0,-0.31826 0.1265,-0.62348 0.3515,-0.84853c0.225,-0.22504 0.5303,-0.35147 0.8485,-0.35147z"/>
 </g>
</svg>