<svg width="23" height="16" xmlns="http://www.w3.org/2000/svg">

 <g>
  <title>background</title>
  <rect fill="#000000" id="canvas_background" height="18" width="25" y="-1" x="-1"/>
 </g>
 <g>
  <title>Layer 1</title>
  <path id="svg_1" fill="#9d8665" d="m9.03,11.38l0,-6.76l5.94,3.38l-5.94,3.38zm13.2,-8.88c-0.1274,-0.48228 -0.3792,-0.92267 -0.7302,-1.27715c-0.351,-0.35447 -0.7888,-0.61063 -1.2698,-0.74285c-1.77,-0.48 -8.88,-0.48 -8.88,-0.48c0,0 -7.1,0 -8.87,0.48c-0.48099,0.13222 -0.91885,0.38838 -1.26982,0.74285c-0.35097,0.35448 -0.60275,0.79487 -0.73018,1.27715c-0.48,1.78 -0.48,5.5 -0.48,5.5c0,0 0,3.72 0.47,5.5c0.1283,0.4835 0.38159,0.9247 0.73441,1.2793c0.35282,0.3545 0.79276,0.61 1.27559,0.7407c1.77,0.48 8.88,0.48 8.88,0.48c0,0 7.1,0 8.87,-0.48c0.481,-0.1322 0.9188,-0.3884 1.2698,-0.7429c0.351,-0.3544 0.6028,-0.7948 0.7302,-1.2771c0.48,-1.78 0.48,-5.5 0.48,-5.5c0,0 0,-3.72 -0.47,-5.5l-0.01,0z"/>
 </g>
</svg>